HIERARCHY
ROOT Hips
{
	OFFSET -0.179506 -22.333345 2.821913
	CHANNELS 6 Xposition Yposition Zposition Zrotation Yrotation Xrotation 
	JOINT LeftUpLeg
	{
		OFFSET 6.951974 -9.140623 -0.681533
		CHANNELS 3 Zrotation Yrotation Xrotation
		JOINT LeftLeg
		{
			OFFSET 3.427654 -37.519855 -0.449580
			CHANNELS 3 Zrotation Yrotation Xrotation
			JOINT LeftFoot
			{
				OFFSET -1.359570 -39.796059 -4.369333
				CHANNELS 3 Zrotation Yrotation Xrotation
				JOINT LeftToe
				{
					OFFSET 2.635814 -5.579078 11.928840
					CHANNELS 3 Zrotation Yrotation Xrotation
					End Site
					{
						OFFSET 0.000000 0.000000 0.000000
					}
				}
			}
		}
	}
	JOINT RightUpLeg
	{
		OFFSET -6.767048 -9.052170 -0.431982
		CHANNELS 3 Zrotation Yrotation Xrotation
		JOINT RightLeg
		{
			OFFSET -3.829005 -38.256897 -0.885003
			CHANNELS 3 Zrotation Yrotation Xrotation
			JOINT RightFoot
			{
				OFFSET 1.577377 -39.841461 -4.231180
				CHANNELS 3 Zrotation Yrotation Xrotation
				JOINT RightToe
				{
					OFFSET -2.537174 -4.814398 12.334795
					CHANNELS 3 Zrotation Yrotation Xrotation
					End Site
					{
						OFFSET 0.000000 0.000000 0.000000
					}
				}
			}
		}
	}
	JOINT Spine
	{
		OFFSET -0.253288 10.896323 -2.669631
		CHANNELS 3 Zrotation Yrotation Xrotation
		JOINT Spine1
		{
			OFFSET 0.548704 13.518043 0.109247
			CHANNELS 3 Zrotation Yrotation Xrotation
			JOINT Spine2
			{
				OFFSET 0.145701 5.292222 2.542457
				CHANNELS 3 Zrotation Yrotation Xrotation
				JOINT Neck
				{
					OFFSET -0.277840 21.387037 -4.285703
					CHANNELS 3 Zrotation Yrotation Xrotation
					JOINT Head
					{
						OFFSET 0.515184 6.496960 5.134897
						CHANNELS 3 Zrotation Yrotation Xrotation
						End Site
						{
							OFFSET 0.000000 0.000000 0.000000
						}
					}
				}
				JOINT LeftShoulder
				{
					OFFSET 7.884473 12.174932 -3.408961
					CHANNELS 3 Zrotation Yrotation Xrotation
					JOINT LeftArm
					{
						OFFSET 9.097692 3.046888 -0.886815
						CHANNELS 3 Zrotation Yrotation Xrotation
						JOINT LeftForeArm
						{
							OFFSET 25.961220 -1.277207 -2.745643
							CHANNELS 3 Zrotation Yrotation Xrotation
							JOINT LeftHand
							{
								OFFSET 24.923361 0.898606 -0.117091
								CHANNELS 3 Zrotation Yrotation Xrotation
								End Site
								{
									OFFSET 0.000000 0.000000 0.000000
								}
							}
						}
					}
				}
				JOINT RightShoulder
				{
					OFFSET -8.175920 11.883285 -3.861528
					CHANNELS 3 Zrotation Yrotation Xrotation
					JOINT RightArm
					{
						OFFSET -9.601238 3.255117 -0.914307
						CHANNELS 3 Zrotation Yrotation Xrotation
						JOINT RightForeArm
						{
							OFFSET -25.374195 -1.332924 -2.140099
							CHANNELS 3 Zrotation Yrotation Xrotation
							JOINT RightHand
							{
								OFFSET -25.529810 0.777228 -0.555919
								CHANNELS 3 Zrotation Yrotation Xrotation
								End Site
								{
									OFFSET 0.000000 0.000000 0.000000
								}
							}
						}
					}
				}
			}
		}
	}
}
MOTION
Frames: 15
Frame Time: 0.033333
2.827323 0.720778 100.802292 174.665884 -0.946745 90.582089 5.240920 4.872737 4.757697 -3.430094 -2.993315 -6.974316 -2.438105 13.309741 -1.762284 nan nan nan -4.771002 -4.908729 2.692731 3.081252 6.350095 -6.200031 8.043623 -11.199687 0.742831 nan nan nan -0.992467 2.876159 1.222772 1.676634 -1.832001 -2.123574 -1.186303 0.774653 7.045250 0.236162 3.254332 5.620805 3.586645 -5.336553 -2.947440 9.288748 10.344663 -9.062206 -11.949091 -5.077773 -4.609774 10.717253 -9.895906 -12.477980 -5.027968 -22.011376 -10.725682 -7.968264 -7.397162 -11.699752 11.113610 4.640182 -5.093436 -10.317476 9.805238 -13.936999 9.511130 12.232028 -11.707916 
2.840296 0.734561 100.792961 174.659553 -0.929996 90.601324 5.270531 4.862185 4.754639 -3.418191 -2.996008 -6.992935 -2.462942 13.323934 -1.791805 nan nan nan -4.745153 -4.924880 2.683617 3.085247 6.369629 -6.191803 8.076774 -11.171297 0.767439 nan nan nan -0.981193 2.869925 1.143735 1.675375 -1.844438 -2.070287 -1.194119 0.797444 7.087732 0.266530 3.241593 5.577157 3.611237 -5.365562 -2.884923 9.266127 10.346663 -9.117409 -11.876468 -5.235394 -4.791399 10.709053 -9.808392 -12.945075 -5.285715 -21.751102 -10.594620 -7.948236 -7.406641 -11.709955 11.109145 4.651304 -5.131216 -10.320658 9.817967 -14.024705 9.565216 12.157044 -11.583262 
2.855800 0.753040 100.794518 174.642190 -0.905608 90.603176 5.318707 4.885983 4.790751 -3.409768 -3.030527 -7.031261 -2.495234 13.334187 -1.742656 nan nan nan -4.717365 -4.942566 2.697389 3.089947 6.359483 -6.186074 8.071589 -11.118995 0.752738 nan nan nan -0.978224 2.898064 1.063622 1.701192 -1.815866 -1.948012 -1.166195 0.837968 7.076120 0.258632 3.224180 5.643755 3.624162 -5.366504 -3.039813 9.213887 10.275632 -9.061150 -11.829640 -5.239123 -4.851943 10.644986 -9.953663 -13.006364 -5.556612 -21.775769 -10.639240 -7.962505 -7.442113 -11.720408 11.096643 4.486730 -5.124563 -10.315392 9.974424 -13.985209 9.615260 12.303490 -11.666174 
2.869062 0.775157 100.800026 174.622182 -0.888401 90.596795 5.352099 4.935336 4.834819 -3.408598 -3.041381 -7.063067 -2.487868 13.325404 -1.714388 nan nan nan -4.707942 -4.948565 2.714957 3.105344 6.367024 -6.188298 8.059834 -11.088826 0.740958 nan nan nan -0.981304 2.922866 1.007878 1.726096 -1.787642 -1.821410 -1.145982 0.833088 7.003918 0.254514 3.216168 5.746865 3.620827 -5.417580 -3.167886 9.168587 10.225584 -9.017367 -11.789239 -5.197009 -4.882843 10.555510 -10.100335 -13.102184 -5.546387 -21.811911 -10.602519 -7.988541 -7.432122 -11.665622 11.090687 4.354289 -5.084902 -10.282568 10.089003 -13.960484 9.560350 12.426863 -11.844038 
2.878130 0.789038 100.799347 174.606267 -0.877028 90.599520 5.375393 4.979226 4.856027 -3.437396 -2.972483 -7.086178 -2.498874 13.274822 -1.737902 nan nan nan -4.683138 -4.949986 2.725811 3.060346 6.374041 -6.221826 8.056644 -11.078978 0.686822 nan nan nan -0.972322 2.929468 0.987788 1.733017 -1.774805 -1.779662 -1.146960 0.809763 6.983245 0.257137 3.236627 5.786060 3.626617 -5.477888 -3.190774 9.156698 10.272512 -9.087798 -11.801169 -5.266078 -4.841423 10.542645 -10.066534 -13.203251 -5.581603 -21.851428 -10.547103 -8.016179 -7.456003 -11.660931 11.145493 4.394388 -4.983490 -10.298975 10.068544 -13.948021 9.540222 12.447582 -11.886033 
2.875661 0.789089 100.786728 174.619136 -0.900474 90.629960 5.339286 4.927022 4.812795 -3.445976 -2.889010 -7.079493 -2.502837 13.272378 -1.786188 nan nan nan -4.682203 -4.934562 2.705694 2.996173 6.380145 -6.277970 8.073999 -11.095123 0.617427 nan nan nan -1.006232 2.925020 0.982794 1.747946 -1.790760 -1.812656 -1.155651 0.786900 7.000405 0.230566 3.212997 5.778674 3.660442 -5.437344 -3.155207 9.196633 10.381816 -9.125235 -11.880119 -5.351122 -4.747535 10.620334 -10.081648 -13.244462 -5.733827 -21.611025 -10.599756 -7.985293 -7.526702 -11.658201 11.158423 4.518743 -4.890151 -10.358418 10.064426 -13.980691 9.618214 12.338064 -11.854167 
2.873071 0.787360 100.779709 174.634012 -0.926266 90.656105 5.281738 4.831147 4.776236 -3.418168 -2.820873 -7.067480 -2.493419 13.281504 -1.806715 nan nan nan -4.684024 -4.899784 2.683168 2.963119 6.368149 -6.280211 8.042700 -11.087622 0.631778 nan nan nan -1.017788 2.920108 1.016404 1.735889 -1.822365 -1.893392 -1.180560 0.764582 7.012780 0.235767 3.225010 5.805995 3.684506 -5.369030 -3.162004 9.256270 10.453500 -9.134023 -11.911167 -5.298123 -4.617663 10.627265 -10.232224 -13.208814 -5.974580 -21.606485 -10.843602 -7.940633 -7.522049 -11.669464 11.143503 4.637358 -4.868935 -10.394196 9.961415 -14.029378 9.725412 12.251468 -11.747201 
2.880725 0.794869 100.788101 174.644122 -0.923526 90.640821 5.286795 4.801008 4.798835 -3.419837 -2.862374 -7.063111 -2.449577 13.275307 -1.789483 nan nan nan -4.671487 -4.906413 2.713358 2.974062 6.377456 -6.250004 7.978807 -11.117648 0.652740 nan nan nan -1.004332 2.915348 1.093110 1.726542 -1.836045 -2.009481 -1.191048 0.772347 7.053045 0.245526 3.206737 5.834605 3.712535 -5.344028 -3.152762 9.281110 10.471157 -9.159761 -11.878702 -5.364558 -4.692377 10.575398 -10.256056 -13.405183 -6.261342 -21.378090 -10.768673 -7.935114 -7.525111 -11.650257 11.135384 4.704003 -4.984620 -10.387171 9.894817 -14.057831 9.905302 12.059768 -11.535663 
2.886105 0.805831 100.798141 174.649057 -0.923932 90.638679 5.296683 4.798616 4.813915 -3.434155 -2.904176 -7.069432 -2.421416 13.274418 -1.766726 nan nan nan -4.677674 -4.923535 2.722916 2.996074 6.381714 -6.241577 7.959553 -11.134153 0.655005 nan nan nan -1.002445 2.914171 1.107871 1.727244 -1.846602 -2.046611 -1.196780 0.778851 7.073028 0.238868 3.187399 5.855410 3.741819 -5.319348 -3.150110 9.297784 10.472869 -9.162130 -11.876214 -5.440558 -4.792087 10.576272 -10.207290 -13.570878 -6.422407 -21.081358 -10.598899 -7.932843 -7.533072 -11.615918 11.135207 4.734450 -5.076181 -10.393634 9.896178 -14.084939 10.001099 11.930852 -11.388910 
2.900124 0.824807 100.802277 174.631725 -0.949589 90.641969 5.296210 4.830181 4.840462 -3.471930 -2.908663 -7.084705 -2.413378 13.220120 -1.718132 nan nan nan -4.722863 -4.944408 2.715064 3.044755 6.326825 -6.192864 7.987214 -11.075127 0.700108 nan nan nan -1.014102 2.903265 1.070469 1.709617 -1.879933 -2.020257 -1.223308 0.797811 7.047534 0.232315 3.261731 5.939359 3.801135 -5.271998 -3.195503 9.331345 10.455968 -9.163463 -11.821559 -5.449599 -4.952085 10.517407 -10.149243 -13.726782 -6.565883 -21.018828 -10.205841 -7.936221 -7.458902 -11.556928 11.097413 4.851573 -5.359662 -10.322151 9.705349 -14.235914 10.131571 11.869150 -10.969634 
2.906490 0.837157 100.795891 174.595516 -0.967371 90.674734 5.259003 4.856581 4.824503 -3.441709 -2.830530 -7.094302 -2.466069 13.204614 -1.748011 nan nan nan -4.750413 -4.931249 2.659594 3.052099 6.266923 -6.140000 8.080255 -10.959305 0.706621 nan nan nan -1.010443 2.893196 1.003428 1.682694 -1.860679 -1.986978 -1.238131 0.810751 7.032327 0.237046 3.350546 5.931915 3.781356 -5.273923 -3.200732 9.393747 10.428784 -9.144764 -11.883631 -5.266215 -4.685071 10.440244 -10.125810 -13.128689 -6.120993 -21.920214 -10.693596 -7.929949 -7.389094 -11.599632 11.059988 4.859265 -5.389535 -10.249570 9.595408 -14.198590 9.963708 12.180345 -10.970748 
2.914281 0.845902 100.782753 174.578294 -0.956371 90.695940 5.258598 4.851027 4.822274 -3.408568 -2.860839 -7.108730 -2.466043 13.260309 -1.770429 nan nan nan -4.730037 -4.931839 2.649589 3.034537 6.302272 -6.142623 8.145781 -10.952996 0.699581 nan nan nan -1.034243 2.907899 0.919254 1.700068 -1.825661 -1.899317 -1.210086 0.813274 7.016925 0.238393 3.332011 5.857488 3.755881 -5.272440 -3.128985 9.403194 10.358367 -9.144022 -11.905965 -5.270896 -4.679246 10.441238 -10.007214 -12.978359 -5.980264 -21.901909 -10.612494 -7.880579 -7.357682 -11.599030 10.957338 4.696297 -5.354141 -10.224419 9.774166 -14.153682 9.961194 12.299338 -11.008714 
2.920500 0.852287 100.775887 174.576649 -0.939769 90.687884 5.289360 4.824346 4.850223 -3.408517 -2.908688 -7.145815 -2.468975 13.297896 -1.747171 nan nan nan -4.696293 -4.936955 2.682452 3.009559 6.346643 -6.178266 8.212730 -11.015723 0.700909 nan nan nan -1.040049 2.922237 0.876691 1.712836 -1.831751 -1.824373 -1.196285 0.793037 7.021381 0.247361 3.270799 5.799245 3.748470 -5.275141 -3.051050 9.358713 10.351841 -9.199726 -11.828169 -5.517738 -5.018520 10.463721 -9.735797 -13.455436 -6.264945 -21.096097 -9.867794 -7.865168 -7.383244 -11.557266 10.931628 4.685490 -5.431785 -10.224777 9.864263 -14.256463 10.223022 12.086680 -10.844211 
2.924460 0.862155 100.775009 174.611342 -0.925772 90.702383 5.343910 4.798981 4.849004 -3.449574 -2.936203 -7.172346 -2.477052 13.299350 -1.716761 nan nan nan -4.672953 -4.941223 2.684310 3.006958 6.335150 -6.187813 8.285436 -11.036197 0.670170 nan nan nan -1.028388 2.928205 0.811782 1.717980 -1.861776 -1.785580 -1.193461 0.771608 7.055672 0.224423 3.204585 5.825564 3.773789 -5.258706 -3.106841 9.316685 10.336344 -9.208943 -11.808721 -5.693514 -5.322665 10.521274 -9.520325 -13.705640 -6.465206 -20.503267 -9.098887 -7.939474 -7.420204 -11.549338 11.017234 4.794599 -5.608147 -10.220354 9.749167 -14.305562 10.357909 11.898657 -10.552658 
2.937631 0.881270 100.770714 174.666389 -0.898141 90.694323 5.423118 4.782765 4.867811 -3.509214 -2.934199 -7.188029 -2.415662 13.272264 -1.665016 nan nan nan -4.631975 -4.926514 2.719695 3.006854 6.273182 -6.211847 8.249162 -11.014991 0.674727 nan nan nan -1.014450 2.934367 0.830100 1.734674 -1.886669 -1.796061 -1.155567 0.738651 7.051687 0.195638 3.190678 5.826964 3.711466 -5.267239 -3.131938 9.263154 10.287942 -9.292431 -11.855969 -5.735612 -5.394863 10.578220 -9.393712 -13.701393 -6.418413 -20.500032 -8.763148 -7.995171 -7.422463 -11.669196 11.019977 4.829632 -5.623063 -10.192593 9.648622 -14.242925 10.342708 11.909816 -10.404999 
